<svg xmlns="http://www.w3.org/2000/svg" xmlns:xlink="http://www.w3.org/1999/xlink" width="113.86" height="113.846" viewBox="0 0 113.86 113.846">
  <defs>
    <filter id="Tracé_3196" x="72.052" y="20.741" width="41.532" height="72.375" filterUnits="userSpaceOnUse">
      <feOffset dy="3" input="SourceAlpha"/>
      <feGaussianBlur stdDeviation="3" result="blur"/>
      <feFlood flood-opacity="0.89"/>
      <feComposite operator="in" in2="blur"/>
      <feComposite in="SourceGraphic"/>
    </filter>
    <filter id="Tracé_3197" x="20.698" y="71.995" width="72.375" height="41.438" filterUnits="userSpaceOnUse">
      <feOffset dy="3" input="SourceAlpha"/>
      <feGaussianBlur stdDeviation="3" result="blur-2"/>
      <feFlood flood-opacity="0.886"/>
      <feComposite operator="in" in2="blur-2"/>
      <feComposite in="SourceGraphic"/>
    </filter>
    <filter id="Tracé_3198" x="0.276" y="20.631" width="41.533" height="72.375" filterUnits="userSpaceOnUse">
      <feOffset dy="3" input="SourceAlpha"/>
      <feGaussianBlur stdDeviation="3" result="blur-3"/>
      <feFlood flood-opacity="0.886"/>
      <feComposite operator="in" in2="blur-3"/>
      <feComposite in="SourceGraphic"/>
    </filter>
    <filter id="Tracé_3199" x="20.787" y="0.314" width="72.375" height="41.438" filterUnits="userSpaceOnUse">
      <feOffset dy="3" input="SourceAlpha"/>
      <feGaussianBlur stdDeviation="3" result="blur-4"/>
      <feFlood flood-opacity="0.886"/>
      <feComposite operator="in" in2="blur-4"/>
      <feComposite in="SourceGraphic"/>
    </filter>
    <filter id="Tracé_3200" x="53.115" y="0.001" width="60.745" height="60.808" filterUnits="userSpaceOnUse">
      <feOffset dy="3" input="SourceAlpha"/>
      <feGaussianBlur stdDeviation="3" result="blur-5"/>
      <feFlood flood-opacity="0.886"/>
      <feComposite operator="in" in2="blur-5"/>
      <feComposite in="SourceGraphic"/>
    </filter>
    <filter id="Tracé_3201" x="53.051" y="53.1" width="60.809" height="60.745" filterUnits="userSpaceOnUse">
      <feOffset dy="3" input="SourceAlpha"/>
      <feGaussianBlur stdDeviation="3" result="blur-6"/>
      <feFlood flood-opacity="0.886"/>
      <feComposite operator="in" in2="blur-6"/>
      <feComposite in="SourceGraphic"/>
    </filter>
    <filter id="Tracé_3202" x="0" y="53.036" width="60.745" height="60.809" filterUnits="userSpaceOnUse">
      <feOffset dy="3" input="SourceAlpha"/>
      <feGaussianBlur stdDeviation="3" result="blur-7"/>
      <feFlood flood-opacity="0.886"/>
      <feComposite operator="in" in2="blur-7"/>
      <feComposite in="SourceGraphic"/>
    </filter>
    <filter id="Tracé_3203" x="0" y="0" width="60.809" height="60.745" filterUnits="userSpaceOnUse">
      <feOffset dy="3" input="SourceAlpha"/>
      <feGaussianBlur stdDeviation="3" result="blur-8"/>
      <feFlood flood-opacity="0.886"/>
      <feComposite operator="in" in2="blur-8"/>
      <feComposite in="SourceGraphic"/>
    </filter>
  </defs>
  <g id="Groupe_37" data-name="Groupe 37" transform="translate(815.61 -134.871) rotate(90)">
    <g transform="matrix(0, -1, 1, 0, 134.87, 815.61)" filter="url(#Tracé_3196)">
      <path id="Tracé_3196-2" data-name="Tracé 3196" d="M108.656,10.26,106.986,6a27.824,27.824,0,0,0-1.025-2.6,5.688,5.688,0,0,0-.83-1.016,6.032,6.032,0,0,0-6.019-1.7,23.489,23.489,0,0,0-2.484.972s-.005-.007-.013,0L92.371,3.515A21.941,21.941,0,0,1,88.106,4.88a22.156,22.156,0,0,1-9.169,0,22.063,22.063,0,0,1-4.279-1.365L70.678,1.78S68.437.686,67.644.451A6,6,0,0,0,61.9,2.3a6.36,6.36,0,0,0-.868,1.169,27.138,27.138,0,0,0-1,2.606L58.388,10.26a22.413,22.413,0,0,1-2.053,3.988,6.357,6.357,0,0,1,3.9.547l6.332,2.765,5.345,2.332.207.092L78.5,22.755a12.589,12.589,0,0,0,10.029.007l6.383-2.786.206-.092,5.345-2.331,6.334-2.766a6.323,6.323,0,0,1,3.909-.54,22.347,22.347,0,0,1-2.053-3.988" transform="translate(104.85 -29.59) rotate(90)" fill="#221eca"/>
    </g>
    <g transform="matrix(0, -1, 1, 0, 134.87, 815.61)" filter="url(#Tracé_3197)">
      <path id="Tracé_3197-2" data-name="Tracé 3197" d="M119.746,72.546,124,70.876l2.6-1.024h.013l.008-.007a6.9,6.9,0,0,0,.995-.824,6.607,6.607,0,0,0,1.79-6.056.01.01,0,0,0,0-.014l-.006-.007-1.06-2.423a.01.01,0,0,0,0-.014l-1.855-4.244a22.215,22.215,0,0,1,0-17.712l1.735-3.98,1.329-3.035a6.593,6.593,0,0,0-1.848-5.743,5.993,5.993,0,0,0-.867-.726l-2.908-1.144-4.186-1.642a22.482,22.482,0,0,1-3.988-2.053,6.359,6.359,0,0,1-.547,3.9l-2.766,6.333-2.331,5.344-.093.207-2.772,6.382a12.581,12.581,0,0,0-.007,10.029l2.786,6.383.092.206,2.331,5.345,2.766,6.333a6.327,6.327,0,0,1,.54,3.91,22.487,22.487,0,0,1,3.988-2.054" transform="translate(104.3 -28.21) rotate(90)" fill="#221eca"/>
    </g>
    <g transform="matrix(0, -1, 1, 0, 134.87, 815.61)" filter="url(#Tracé_3198)">
      <path id="Tracé_3198-2" data-name="Tracé 3198" d="M58.282,83.647l1.67,4.258a27.739,27.739,0,0,0,1.024,2.6,5.65,5.65,0,0,0,.831,1.016,6.029,6.029,0,0,0,6.018,1.7,23.49,23.49,0,0,0,2.484-.972.009.009,0,0,0,.013,0l4.244-1.855a22.215,22.215,0,0,1,17.712,0l3.98,1.735s2.242,1.094,3.035,1.329a6,6,0,0,0,5.743-1.848,6.312,6.312,0,0,0,.868-1.169,27.144,27.144,0,0,0,1-2.606l1.642-4.186a22.482,22.482,0,0,1,2.053-3.988,6.355,6.355,0,0,1-3.9-.547l-6.333-2.766-5.345-2.331-.207-.093-6.382-2.772A12.581,12.581,0,0,0,78.4,71.144L72.022,73.93l-.206.093-5.345,2.331-6.333,2.766a6.327,6.327,0,0,1-3.91.54,22.416,22.416,0,0,1,2.054,3.988" transform="translate(102.91 -29.6) rotate(90)" fill="#221eca"/>
    </g>
    <g transform="matrix(0, -1, 1, 0, 134.87, 815.61)" filter="url(#Tracé_3199)">
      <path id="Tracé_3199-2" data-name="Tracé 3199" d="M46.356,22.193,42.1,23.864l-2.6,1.024h-.014l-.007.007a6.9,6.9,0,0,0-.995.824,6.61,6.61,0,0,0-1.791,6.056.011.011,0,0,0,0,.014l.007.007,1.06,2.423a.01.01,0,0,0,0,.014l1.855,4.244a21.94,21.94,0,0,1,1.365,4.265A22.237,22.237,0,0,1,39.611,56.19L37.876,60.17l-1.329,3.035A6.593,6.593,0,0,0,38.4,68.948a5.992,5.992,0,0,0,.867.726l2.908,1.144,4.186,1.642a22.483,22.483,0,0,1,3.988,2.053,6.359,6.359,0,0,1,.547-3.9l2.766-6.332,2.331-5.345.092-.207,2.772-6.382a12.581,12.581,0,0,0,.007-10.029l-2.786-6.383-.092-.206-2.331-5.345-2.766-6.333a6.326,6.326,0,0,1-.54-3.91,22.486,22.486,0,0,1-3.988,2.054" transform="translate(104.3 -30.15) rotate(90)" fill="#221eca"/>
    </g>
    <g transform="matrix(0, -1, 1, 0, 134.87, 815.61)" filter="url(#Tracé_3200)">
      <path id="Tracé_3200-2" data-name="Tracé 3200" d="M75.18,3.1,70.951,1.257A27.9,27.9,0,0,0,68.366.132,5.632,5.632,0,0,0,67.048,0a6.081,6.081,0,0,0-5.5,3.081,23.933,23.933,0,0,0-1.077,2.465.01.01,0,0,0-.01.01l-1.7,4.349a22.018,22.018,0,0,1-2.068,4.015,22.344,22.344,0,0,1-6.54,6.54,22.289,22.289,0,0,1-4.026,2.079l-4.076,1.6s-2.378.818-3.112,1.217a6.049,6.049,0,0,0-2.778,5.414,6.378,6.378,0,0,0,.214,1.453A27.275,27.275,0,0,0,37.514,34.8l1.815,4.156a22.717,22.717,0,0,1,1.183,3.47.408.408,0,0,0,.7.187,6.942,6.942,0,0,1,2.669-1.74l6.489-2.545,5.475-2.15.213-.081,6.529-2.575a12.7,12.7,0,0,0,7.158-7.148l2.564-6.54.081-.214,2.151-5.475,2.544-6.489a7.008,7.008,0,0,1,1.742-2.669.409.409,0,0,0-.186-.7A22.578,22.578,0,0,1,75.18,3.1" transform="translate(104.86 -30.15) rotate(90)" fill="#ffc005"/>
    </g>
    <g transform="matrix(0, -1, 1, 0, 134.87, 815.61)" filter="url(#Tracé_3201)">
      <path id="Tracé_3201-2" data-name="Tracé 3201" d="M127.463,39.025l1.846-4.228,1.125-2.585.009-.01v-.01a6.863,6.863,0,0,0,.122-1.3,6.662,6.662,0,0,0-3.042-5.6.01.01,0,0,0-.01-.01H127.5l-2.485-.973s0-.01-.009-.01l-4.349-1.7a22.019,22.019,0,0,1-4.015-2.068,22.441,22.441,0,0,1-8.619-10.565l-1.6-4.076L105.23,2.837a.5.5,0,0,0-.06-.11A6.65,6.65,0,0,0,99.793,0a5.993,5.993,0,0,0-1.136.1l-2.89,1.258L91.611,3.174a22.718,22.718,0,0,1-3.47,1.183.408.408,0,0,0-.187.7,6.943,6.943,0,0,1,1.74,2.669l2.545,6.489,2.15,5.475.08.213,2.576,6.529a12.7,12.7,0,0,0,7.148,7.158l6.54,2.565.214.081,5.475,2.15,6.488,2.545a7,7,0,0,1,2.67,1.742.409.409,0,0,0,.7-.186,22.552,22.552,0,0,1,1.181-3.463" transform="translate(104.86 -28.72) rotate(90)" fill="#ff0c5d"/>
    </g>
    <g transform="matrix(0, -1, 1, 0, 134.87, 815.61)" filter="url(#Tracé_3202)">
      <path id="Tracé_3202-2" data-name="Tracé 3202" d="M91.541,91.323l4.228,1.846a28.021,28.021,0,0,0,2.585,1.125,5.639,5.639,0,0,0,1.319.132,6.081,6.081,0,0,0,5.5-3.081,23.892,23.892,0,0,0,1.077-2.466s.01,0,.01-.009l1.7-4.35a22.044,22.044,0,0,1,2.068-4.014A22.442,22.442,0,0,1,120.6,71.886l4.076-1.6s2.378-.818,3.112-1.217a6.049,6.049,0,0,0,2.778-5.414,6.37,6.37,0,0,0-.214-1.453,27.273,27.273,0,0,0-1.145-2.572l-1.815-4.156A22.714,22.714,0,0,1,126.209,52a.408.408,0,0,0-.7-.187,6.942,6.942,0,0,1-2.669,1.74L116.351,56.1l-5.475,2.15-.213.081-6.529,2.575a12.7,12.7,0,0,0-7.158,7.148l-2.565,6.54-.081.214-2.15,5.475L89.635,86.77a7,7,0,0,1-1.742,2.67.409.409,0,0,0,.186.7,22.552,22.552,0,0,1,3.463,1.181" transform="translate(103.43 -28.72) rotate(90)" fill="#ffc005"/>
    </g>
    <g transform="matrix(0, -1, 1, 0, 134.87, 815.61)" filter="url(#Tracé_3203)">
      <path id="Tracé_3203-2" data-name="Tracé 3203" d="M39.257,55.4,37.411,59.63l-1.125,2.585-.009.01v.01a6.863,6.863,0,0,0-.122,1.3,6.662,6.662,0,0,0,3.042,5.6.01.01,0,0,0,.01.01h.009l2.485.973s0,.01.009.01l4.349,1.7A22.019,22.019,0,0,1,50.075,73.9a22.442,22.442,0,0,1,8.619,10.565l1.6,4.076,1.194,3.054a.512.512,0,0,0,.06.109,6.65,6.65,0,0,0,5.377,2.727,5.994,5.994,0,0,0,1.136-.1l2.89-1.258,4.156-1.815a22.719,22.719,0,0,1,3.47-1.183.408.408,0,0,0,.187-.7,6.942,6.942,0,0,1-1.74-2.669L74.48,80.212l-2.15-5.475-.08-.213L69.674,68a12.7,12.7,0,0,0-7.148-7.158l-6.54-2.565-.214-.081L50.3,56.04,43.81,53.5a7,7,0,0,1-2.67-1.742.409.409,0,0,0-.7.186A22.551,22.551,0,0,1,39.257,55.4" transform="translate(103.43 -30.15) rotate(90)" fill="#ff0c5d"/>
    </g>
  </g>
</svg>
